<svg xmlns="http://www.w3.org/2000/svg" width="260" height="104" viewBox="0 0 737 294" fill="none">
  <path fill="#FBBF15" d="M63.383 211.094c-1.12 0-1.976-.609-2.756-1.422-4.326-4.547-8.4-9.547-12.22-15-5.64-8.06-9.796-16.737-12.47-26.03-1.893-6.554-2.846-13.127-2.86-19.72-.033-13.6 3.4-26.467 10.3-38.6 3.96-6.96 8.34-13.167 13.14-18.62 9.94-11.28 21.42-21.224 34.44-29.83a289.793 289.793 0 0 1 41.66-22.86 412.172 412.172 0 0 1 45.87-17.29 576.566 576.566 0 0 1 97.2-21.2c.294-.04.304-.047.03-.02a658.406 658.406 0 0 0-128.76 25.38 382.85 382.85 0 0 0-78.1 33.48c-10.92 6.193-21.49 13.6-31.71 22.22-10.473 8.826-19.13 18.916-25.97 30.27-7.62 12.646-11.02 26.106-10.2 40.38.374 6.386 1.797 12.866 4.27 19.44 4.64 12.313 11.67 23.26 21.09 32.84a183.928 183.928 0 0 0 34.15 27.33 329.133 329.133 0 0 0 57.05 28.2 550.112 550.112 0 0 0 97.92 27.1c13.614 2.446 27.726 4.881 31.25 5.29 3.525.409 7.081.691 8.405.691 1.325 0 1.502.011 0-.084-1.501-.095-5.102-.705-6.769-.955-1.668-.25-77.476-17.729-114.396-33.442-1.066-.46-1.02-.69.14-.69l466.75.19c1.474 0 1.534.276.18.83l-23.56 9.63.5.33a393.757 393.757 0 0 0 59.08-23.93c13.56-6.814 26.72-15.08 39.48-24.8 12.38-9.42 22.647-20.464 30.8-33.13 14.5-22.507 16.027-45.964 4.58-70.37-2.533-5.4-6.616-11.567-12.25-18.5-7.826-9.627-17.73-18.647-29.71-27.06a262.645 262.645 0 0 0-37.97-22.2 446.994 446.994 0 0 0-79.01-29.01l-9.009-2.252c3.478 1.078 8.253 2.705 8.559 2.792 28.88 8.38 56.244 20.233 82.09 35.56a198.947 198.947 0 0 1 35.2 26.52 133.478 133.478 0 0 1 14.26 15.75 94.853 94.853 0 0 1 11.92 20.22c2.74 6.34 4.6 12.723 5.58 19.15 2.48 16.306-.286 31.983-8.3 47.03a111.02 111.02 0 0 1-19.2 26.08c-.199.205-.499.299-.838.312H63.383Z"/>
  <path fill="#1D59AF" d="M472.945 2.1a735.708 735.708 0 0 1-8.332-.955A215 215 0 0 0 460.707.7c-2.121-.13-1.636-.063 0 .16 1.546.21 3.094.428 4.641.647 2.035.288 4.072.576 6.109.845a663.324 663.324 0 0 1 77.79 16.79l2.779.732c27.253 7.187 54.521 16.915 79.941 29.068a262.645 262.645 0 0 1 37.97 22.2c11.98 8.413 21.884 17.433 29.71 27.06 5.634 6.933 9.717 13.1 12.25 18.5 11.447 24.406 9.92 47.863-4.58 70.37-8.153 12.666-18.42 23.71-30.8 33.13-12.76 9.72-25.92 17.986-39.48 24.8a393.757 393.757 0 0 1-59.08 23.93l-3.25.92a735.19 735.19 0 0 1-47.45 14.1c-.326.086-.323.1.01.04 32.207-6.02 63.6-14.9 94.18-26.64a349.587 349.587 0 0 0 43.14-20.02c13.054-7.18 25.907-16.264 38.56-27.25 12.114-10.527 21.114-22.36 27-35.5 6.894-15.394 7.847-30.997 2.86-46.81-1.853-5.887-4.68-11.907-8.48-18.06-5.573-9.014-12.373-17.094-20.4-24.24a227.461 227.461 0 0 0-51.51-34.6c-15.06-7.373-29.966-13.597-44.72-18.67-43.5-14.96-88.48-24.994-134.94-30.1l-.012-.002Z"/>
  <path fill="#FBBF15" d="M159.447 167.302c-1.806.46-3.613.88-5.42 1.26a325.78 325.78 0 0 1-62.4 21.04.536.536 0 0 0-.29.16c-.433.433-.273.52.48.26.147-.047.284-.084.41-.11a1279.757 1279.757 0 0 1 159.98-20.51 837.19 837.19 0 0 1 106.74-.11 554.303 554.303 0 0 1 48.01 5.11 383.67 383.67 0 0 1 70.37 17.5c3.554 1.246 7.014 1.993 10.38 2.24 3.04.22 4.97-.767 5.79-2.96.42-1.12.464-2.987.13-5.6-.393-3.12-.803-5.414-1.23-6.88a35.43 35.43 0 0 1-1.43-10.22c.027-3.094.694-5.507 2-7.24 1.64-2.174 3.99-3.514 7.05-4.02a91.245 91.245 0 0 1 21.44-1.01 159.557 159.557 0 0 1 38.02 7.37 323.541 323.541 0 0 1 45.43 18.59c12.807 6.408 32.822 18.068 42.972 23.981l.001.001.008.004c3.33 1.94 5.596 3.26 6.195 3.572 1.001.521 1.619.767 3.452 1.364 1.066.347 1.978.605.751 0-1.226-.605-6.019-4.53-8.769-8.012-4.387-8.94-52.097-63.28-81.01-93.99-11.691-12.418-17.903-18.357-27.33-27.05-6.78-6.26-11.756-10.69-14.93-13.29-7.306-5.993-15.34-11.51-24.1-16.55-3.806-2.187-7.71-3.554-11.71-4.1-3.34-.454-7.27-.023-11.79 1.29a94.307 94.307 0 0 0-25.46 11.7c-.18.12-4.286 3.216-12.32 9.29-4.613 3.493-8.936 6.31-12.97 8.45-4.593 2.433-9.493 3.463-14.7 3.09-3.86-.273-8.506-1.65-13.94-4.13-4.813-2.194-9.643-4.847-14.49-7.96-6.073-3.907-13.01-7.554-20.81-10.94-7.18-3.12-14.846-4.074-23-2.86-3.64.54-7.263 1.81-10.87 3.81a81.034 81.034 0 0 0-12.17 8.3l9.98 12.76c.167.216.397.372.655.445.259.072.531.056.775-.045 11-4.407 22.21-6.83 33.63-7.27 7.514-.294 14.11.386 19.79 2.04 8.34 2.42 15.77 6.746 22.29 12.98 2.56 2.44 5.057 5.04 7.49 7.8a.78.78 0 0 0 .99.15 56.813 56.813 0 0 1 11.69-5.48c4.554-1.52 8.717-2.474 12.49-2.86 7.987-.82 15.927.903 23.82 5.17 11.194 6.047 18.757 14.566 22.69 25.56.58 1.626.72 3.313.42 5.06-.253 1.5-.95 2.486-2.09 2.96-1.373.573-2.786.283-4.24-.87a206.382 206.382 0 0 0-23.41-16.09c-3.553-2.1-7.48-3.977-11.78-5.63-.693-.267-.966-.034-.82.7.067.333-.016.663-.25.99a.9.9 0 0 1-.342.283c-.143.071-.31.114-.488.127-5.933.326-11.606 1.766-17.02 4.32a1.532 1.532 0 0 0-.68 2.13c2.7 4.773 4.434 9.696 5.2 14.77.267 1.786-.06 3.23-.98 4.33a.945.945 0 0 1-.368.271 1.074 1.074 0 0 1-.472.079c-1.693-.074-3.336-.8-4.93-2.18a164.832 164.832 0 0 1-9.51-8.88 1.235 1.235 0 0 0-.933-.374 1.245 1.245 0 0 0-.907.434 146.165 146.165 0 0 0-13.19 17.98c-3.52 5.673-6.653 9.89-9.4 12.65-2.593 2.606-4.59 2.323-5.99-.85a7.476 7.476 0 0 1-.57-4.19c2.027-14.127 7.974-26.284 17.84-36.47a.484.484 0 0 0 .135-.36.492.492 0 0 0-.047-.188.487.487 0 0 0-.118-.152 130.18 130.18 0 0 0-20.41-14.98c-14.12-8.4-29.59-11.587-46.41-9.56a.68.68 0 0 0-.513.348.655.655 0 0 0-.007.612c.687 1.34 1.567 1.943 2.64 1.81.467-.06.73-.09.79-.09 11.12-.3 22.117 1.56 32.99 5.58 1.527.566 1.477.81-.15.73-10.28-.507-19.826.743-28.64 3.75a.844.844 0 0 0-.578.82.86.86 0 0 0 .078.35c4.074 8.833 6.524 17.926 7.35 27.28.354 3.993-.066 7.64-1.26 10.94-1.473 4.053-3.973 5.556-7.5 4.51-1.486-.44-2.946-1.32-4.38-2.64-1.166-1.08-2.333-2.37-3.5-3.87a906.371 906.371 0 0 1-15.6-20.75.943.943 0 0 0-1.085-.328.93.93 0 0 0-.335.218 397.39 397.39 0 0 0-27.18 30.53c-2.813 3.506-5.536 6.116-8.17 7.83-1.933 1.253-3.213 1.033-3.84-.66-.266-.7-.366-1.734-.3-3.1.367-7.46 2.24-14.547 5.62-21.26 5.507-10.947 12.904-20.394 22.19-28.34a.545.545 0 0 0 .19-.357.48.48 0 0 0-.021-.197.445.445 0 0 0-.099-.166l-10.43-11.65a821.99 821.99 0 0 1-126.06 77.73c-1.74.873-3.473 1.53-5.2 1.97Z"/>
  <path fill="#1D59AF" d="M659.137 211.582c-3.413-1.867-6.62-4.7-9.62-8.5a1417.557 1417.557 0 0 0-81.01-93.99 544.328 544.328 0 0 0-27.33-27.05c-6.78-6.26-11.756-10.69-14.93-13.29-7.306-5.993-15.34-11.51-24.1-16.55-3.806-2.187-7.71-3.554-11.71-4.1-3.34-.454-7.27-.024-11.79 1.29a94.307 94.307 0 0 0-25.46 11.7c-.18.12-4.286 3.216-12.32 9.29-4.613 3.493-8.936 6.31-12.97 8.45-4.593 2.433-9.493 3.463-14.7 3.09-3.86-.273-8.506-1.65-13.94-4.13-4.813-2.194-9.643-4.847-14.49-7.96-6.073-3.907-13.01-7.554-20.81-10.94-7.18-3.12-14.846-4.074-23-2.86-3.64.54-7.263 1.81-10.87 3.81a81.042 81.042 0 0 0-12.17 8.3l-6.31-6.25a.786.786 0 0 1-.231-.622.744.744 0 0 1 .331-.558c7.807-5.02 15.58-9.884 23.32-14.59 7.214-4.387 12.58-7.077 16.1-8.07 6.054-1.707 12.227-1.824 18.52-.35 5.447 1.273 10.987 3.733 16.62 7.38 3.614 2.333 9.947 6.75 19 13.25 1.867 1.333 4.164 2.64 6.89 3.92 2.82 1.326 5.297 2.193 7.43 2.6 6.334 1.206 12.3-.107 17.9-3.94a42.67 42.67 0 0 0 8.41-7.58c1.214-1.434 3.88-4.104 8-8.01 3.447-3.267 6.344-5.667 8.69-7.2 7.487-4.907 15.944-7.817 25.37-8.73 3.66-.354 7.007.03 10.04 1.15a56.197 56.197 0 0 1 11.04 5.52 153.016 153.016 0 0 1 20.73 16.02 424.96 424.96 0 0 1 29.86 30.38 991.584 991.584 0 0 1 44.95 54.32 1799.38 1799.38 0 0 1 54.56 74.8Zm-405.87-170c3.567.24 6.784.566 9.65.98 3.127.446 6.314 1 9.56 1.66 9.76 1.986 18.78 5.61 27.06 10.87 5.147 3.266 10.217 7.57 15.21 12.91 7.36 7.866 13.784 16.643 19.27 26.33 3.087 5.44 5.51 11.006 7.27 16.7 1.554 5.04 2.537 9.31 2.95 12.81.534 4.54.274 8.973-.78 13.3-.413 1.693-1.346 2.773-2.8 3.24-1.133.36-2.38.173-3.74-.56-1.866-1-3.46-2.37-4.78-4.11a3952.257 3952.257 0 0 1-14.14-18.84 347.503 347.503 0 0 0-27.75-32.77c-11.22-11.7-24.28-20.744-39.18-27.13-16.98-7.28-34.666-9.764-53.06-7.45-.326.04-.333 0-.02-.12 17.56-6.527 35.987-9.134 55.28-7.82Z"/>
  <path fill="#1D59AF" d="M256.017 62.332c7.2 3.46 13.277 7.026 18.23 10.7.267.2.24.246-.08.14-8.933-2.92-16.92-4.764-23.96-5.53-15.22-1.654-29.783.283-43.69 5.81-4.646 1.853-9.326 4.06-14.04 6.62-3.493 1.906-7.866 4.646-13.12 8.22a1268.375 1268.375 0 0 0-27.33 19.12c-3.373 2.433-6.646 4.26-9.82 5.48-1.906.733-3.35.536-4.33-.59-.693-.787-1.01-1.974-.95-3.56.067-1.807.41-3.674 1.03-5.6 2.167-6.774 5.26-12.9 9.28-18.38 3.434-4.68 7.994-9.53 13.68-14.55 5.834-5.14 12.117-9.394 18.85-12.76 4.26-2.127 8.854-3.74 13.78-4.84 4.334-.974 9.14-1.46 14.42-1.46 16.5-.014 32.517 3.713 48.05 11.18Zm34.69 25.27a821.99 821.99 0 0 1-126.06 77.73c-1.74.873-3.473 1.53-5.2 1.97-1.806.46-3.613.88-5.42 1.26a957.792 957.792 0 0 0-80.38 14.79 2.878 2.878 0 0 1-.4.05c-1.633.06-1.653-.13-.06-.57a441.242 441.242 0 0 0 58.88-20.93 842.903 842.903 0 0 0 84.54-42.8 1944.839 1944.839 0 0 0 65.15-39.46.89.89 0 0 1 .557-.136.82.82 0 0 1 .503.236l7.89 7.86Zm179.82 14.73c4.747 4.053 8.37 8.95 10.87 14.69a15.872 15.872 0 0 1 1.31 7.14c-.066 1.46-.773 1.906-2.12 1.34-1.226-.514-2.41-1.237-3.55-2.17a168.02 168.02 0 0 0-24.18-16.41c-9.24-5.16-19.04-7.337-29.4-6.53-6.553.513-12.726 2.573-18.52 6.18-.28.173-.3.14-.06-.1 6.8-6.834 15.327-11.61 25.58-14.33 4.494-1.194 8.784-1.75 12.87-1.67 4 .073 8.15 1.003 12.45 2.79 5.347 2.213 10.264 5.236 14.75 9.07Z"/>
  <path fill="#1D59AF" d="M398.117 115.312c4.914-5.66 11.017-9.427 18.31-11.3 8.3-2.127 16.22-1.997 23.76.39 1.307.413 1.277.656-.09.73-9.186.513-17.293 3.623-24.32 9.33a70.505 70.505 0 0 0-13.47 14.52 2421.363 2421.363 0 0 0-12.95 18.82 18.402 18.402 0 0 1-3.71 4.03c-1.153.926-1.8.696-1.94-.69a27.552 27.552 0 0 1 .7-9.51c2.48-9.874 7.05-18.647 13.71-26.32Zm1.55 153.28.05-3.71c.004-.169.04-.329.107-.466a.747.747 0 0 1 .273-.314c.58-.354 1.167-.37 1.76-.05a.711.711 0 0 1 .296.31.993.993 0 0 1 .104.47v16.62a.548.548 0 0 1-.142.371.49.49 0 0 1-.348.159l-14.5.11a.506.506 0 0 1-.356-.143.5.5 0 0 1-.154-.357l-.05-11.79c0-.175.072-.343.199-.467a.691.691 0 0 1 .481-.193l11.77-.05a.528.528 0 0 0 .358-.149.504.504 0 0 0 .152-.351Zm.036 3.559a.298.298 0 0 0-.299-.301l-9.76-.017a.299.299 0 0 0-.212.088.299.299 0 0 0-.089.212l-.012 6.98a.306.306 0 0 0 .088.212.3.3 0 0 0 .212.088l9.76.017a.3.3 0 0 0 .3-.299l.012-6.98Zm70.894-8.209h-1.76a.38.38 0 0 0-.38.38v17.44c0 .21.17.38.38.38h1.76c.21 0 .38-.17.38-.38v-17.44a.38.38 0 0 0-.38-.38Zm29.89 5.15 10.91.11a.5.5 0 0 1 .5.5l.12 11.75a.542.542 0 0 1-.145.371.505.505 0 0 1-.355.159l-14.5.11a.482.482 0 0 1-.36-.149.527.527 0 0 1-.15-.371v-16.86c0-.158.045-.311.129-.438a.702.702 0 0 1 .341-.272c1.52-.554 2.13.513 1.83 3.2a1.702 1.702 0 0 0 .423 1.316 1.706 1.706 0 0 0 1.257.574Zm8.936 3.084a.46.46 0 0 0-.134-.318.45.45 0 0 0-.319-.129l-9.5.066a.45.45 0 0 0-.447.453l.049 6.98a.44.44 0 0 0 .134.317.444.444 0 0 0 .319.13l9.5-.066a.452.452 0 0 0 .446-.454l-.048-6.979Zm-262.686 10.536.05 3.57a.797.797 0 0 1-.116.433.685.685 0 0 1-.324.277c-1.586.62-2.33.276-2.23-1.03.06-.714.09-1.097.09-1.15v-15.17a.5.5 0 0 1 .5-.5h14.46a.541.541 0 0 1 .54.54l.05 11.78a.487.487 0 0 1-.139.356.493.493 0 0 1-.351.154l-11.99.24a.584.584 0 0 0-.385.151.462.462 0 0 0-.155.349Zm10.466-10.561a.264.264 0 0 0-.078-.191.278.278 0 0 0-.191-.08l-9.76-.017a.256.256 0 0 0-.103.021.26.26 0 0 0-.088.058.278.278 0 0 0-.08.191l-.012 7.02c0 .035.007.07.021.103a.26.26 0 0 0 .058.088.285.285 0 0 0 .087.059c.033.013.068.02.104.02l9.76.017a.275.275 0 0 0 .191-.078.26.26 0 0 0 .058-.088.264.264 0 0 0 .021-.103l.012-7.02Zm19.944-.459-11.69-.05a.816.816 0 0 1-.436-.135.637.637 0 0 1-.254-.335 2.537 2.537 0 0 1 0-1.57.642.642 0 0 1 .258-.336.76.76 0 0 1 .432-.124l14.18.05a.519.519 0 0 1 .51.51l.12 11.75a.542.542 0 0 1-.145.371.505.505 0 0 1-.355.159l-14.56.15a.476.476 0 0 1-.353-.146.506.506 0 0 1-.108-.167.51.51 0 0 1-.039-.197v-6.68a.562.562 0 0 1 .34-.508.543.543 0 0 1 .21-.042l11.65-.05a.752.752 0 0 0 .421-.14.716.716 0 0 0 .259-.35 3.743 3.743 0 0 0 .15-1.66.565.565 0 0 0-.197-.354.619.619 0 0 0-.393-.146Zm.536 5.603a.42.42 0 0 0-.422-.418l-9.5.05a.417.417 0 0 0-.418.422l.009 1.68a.417.417 0 0 0 .422.418l9.5-.05a.42.42 0 0 0 .418-.422l-.009-1.68Zm10.064-4.843.17 8.94a.777.777 0 0 1-.115.426.601.601 0 0 1-.315.254c-1.733.593-2.536.063-2.41-1.59.087-1.06.13-1.624.13-1.69v-8.99c0-.175.069-.343.191-.467a.643.643 0 0 1 .459-.193l14.28.05a.7.7 0 0 1 .413.142.606.606 0 0 1 .227.348c.374 1.52-.17 2.193-1.63 2.02-2.7-.32-6.326-.254-10.88.2a.597.597 0 0 0-.373.182.522.522 0 0 0-.147.368Zm29.4-.76-11.69-.05a.816.816 0 0 1-.436-.135.637.637 0 0 1-.254-.335 2.537 2.537 0 0 1 0-1.57.64.64 0 0 1 .258-.334.768.768 0 0 1 .432-.126h14.18a.556.556 0 0 1 .4.164.542.542 0 0 1 .16.396l-.04 11.87a.512.512 0 0 1-.146.36.495.495 0 0 1-.354.15l-14.09.06a.855.855 0 0 1-.608-.255.875.875 0 0 1-.252-.615v-6.36a.52.52 0 0 1 .52-.52h11.47a.984.984 0 0 0 .468-.117.753.753 0 0 0 .312-.313c.274-.54.364-1.127.27-1.76a.574.574 0 0 0-.2-.361.63.63 0 0 0-.4-.149Zm.539 5.661a.457.457 0 0 0-.285-.425.464.464 0 0 0-.176-.035l-9.54.017a.464.464 0 0 0-.325.135.456.456 0 0 0-.134.326l.003 1.62a.464.464 0 0 0 .135.325.462.462 0 0 0 .325.134l9.54-.017a.457.457 0 0 0 .425-.284.464.464 0 0 0 .035-.176l-.003-1.62Zm10.041 5.349.1 3.62c.003.172-.029.335-.093.469a.569.569 0 0 1-.267.281 2.594 2.594 0 0 1-1.72.17.614.614 0 0 1-.346-.237.722.722 0 0 1-.134-.423l-.06-16.94a.5.5 0 0 1 .5-.5l14.44.05a.523.523 0 0 1 .358.149c.095.093.15.219.152.351l.05 11.94a.5.5 0 0 1-.155.36.539.539 0 0 1-.375.15l-11.92.05a.565.565 0 0 0-.382.154.496.496 0 0 0-.113.165.45.45 0 0 0-.035.191Zm10.476-10.591a.34.34 0 0 0-.102-.248.363.363 0 0 0-.113-.076.364.364 0 0 0-.134-.027l-9.78-.017a.358.358 0 0 0-.248.102.36.36 0 0 0-.103.248l-.012 6.98a.345.345 0 0 0 .102.247.335.335 0 0 0 .114.076.341.341 0 0 0 .134.027l9.78.017a.346.346 0 0 0 .323-.215.345.345 0 0 0 .027-.134l.012-6.98Zm22.744-2.969h-14.98a.26.26 0 0 0-.26.26v1.98c0 .143.117.26.26.26h14.98a.26.26 0 0 0 .26-.26v-1.98a.26.26 0 0 0-.26-.26Zm17.45 2.55-8.72-.04a.927.927 0 0 0-.862.554.875.875 0 0 0-.068.346l.11 8.78a.792.792 0 0 1-.114.432.6.6 0 0 1-.316.258 3.824 3.824 0 0 1-1.67.15.553.553 0 0 1-.354-.198.653.653 0 0 1-.146-.402l-.04-11.91a.498.498 0 0 1 .149-.367.515.515 0 0 1 .371-.153h14.55c.13 0 .255.054.347.149a.522.522 0 0 1 .143.361l.09 11.68a.87.87 0 0 1-.116.443.611.611 0 0 1-.304.267 2.722 2.722 0 0 1-1.78.04.598.598 0 0 1-.309-.25.853.853 0 0 1-.131-.43l-.28-9.2a.518.518 0 0 0-.168-.362.556.556 0 0 0-.382-.148Zm31.09-2.54h-2.02a.26.26 0 0 0-.26.26v12.46c0 .143.117.26.26.26h2.02a.26.26 0 0 0 .26-.26v-12.46a.26.26 0 0 0-.26-.26Zm20.751 12.646a.327.327 0 0 1-.203.305.323.323 0 0 1-.126.026l-14.86.026a.342.342 0 0 1-.234-.096.336.336 0 0 1-.097-.234l-.022-12.34a.336.336 0 0 1 .33-.33l14.86-.026a.322.322 0 0 1 .233.096.32.32 0 0 1 .097.233l.022 12.34Zm-2.528-9.718a.299.299 0 0 0-.088-.213.298.298 0 0 0-.211-.088l-9.76-.034a.3.3 0 0 0-.301.299l-.025 7.06a.3.3 0 0 0 .299.301l9.76.034a.3.3 0 0 0 .301-.299l.025-7.06Zm25.087-.598c-2.033-.214-2.813.93-2.34 3.43a6.946 6.946 0 0 1-.03 2.85c-.286 1.373.05 1.99 1.01 1.85 1-.147 1.527-.22 1.58-.22h7.17c.067 0 .577-.04 1.53-.12 1.52-.134 2.117.636 1.79 2.31a.607.607 0 0 1-.6.5l-14.09.06a.855.855 0 0 1-.608-.255.875.875 0 0 1-.252-.615v-11.63a.5.5 0 0 1 .5-.5l14.44.05a.627.627 0 0 1 .396.146.557.557 0 0 1 .194.354c.074.573.024 1.13-.15 1.67a.669.669 0 0 1-.265.337.764.764 0 0 1-.435.123c-2.54-.027-5.08-.06-7.62-.1-.04 0-.78-.08-2.22-.24Zm26.6 8.11 8.92.05c.17 0 .333-.069.453-.191a.653.653 0 0 0 .187-.459v-7c0-.047-.026-.447-.08-1.2-.106-1.36.567-1.924 2.02-1.69a.607.607 0 0 1 .51.59l.05 11.94a.505.505 0 0 1-.152.36.526.526 0 0 1-.368.15h-14.48a.498.498 0 0 1-.5-.5v-11.75c0-.153.045-.301.129-.424a.692.692 0 0 1 .341-.266c1.574-.567 2.31.083 2.21 1.95a145.42 145.42 0 0 0-.18 7.47.98.98 0 0 0 .275.682.94.94 0 0 0 .665.288Zm-118.622-5.213-14.64.026a.43.43 0 0 0-.429.43l.003 1.64c0 .238.193.43.43.43l14.64-.026a.43.43 0 0 0 .43-.431l-.003-1.64a.43.43 0 0 0-.431-.429Zm-.078 5.013h-14.46a.52.52 0 0 0-.52.52v1.72c0 .287.233.52.52.52h14.46a.52.52 0 0 0 .52-.52v-1.72a.52.52 0 0 0-.52-.52Zm-115.43-37.06 30.39.12a.53.53 0 0 1 .364.143.484.484 0 0 1 .156.347v3.6a.595.595 0 0 1-.178.424.616.616 0 0 1-.432.176h-37.11a.498.498 0 0 1-.5-.5l.06-32.44c0-.158.052-.309.146-.421a.473.473 0 0 1 .354-.179l5.11-.12a.738.738 0 0 1 .316.063c.1.045.192.111.269.196a.913.913 0 0 1 .181.298c.042.112.064.232.064.353v8.09c0 .175.07.343.194.466a.657.657 0 0 0 .466.194h30.28a.675.675 0 0 1 .442.157.514.514 0 0 1 .188.383l.02 3.67a.425.425 0 0 1-.193.339.804.804 0 0 1-.467.141l-29.93.06a.963.963 0 0 0-.668.261.892.892 0 0 0-.203.289.83.83 0 0 0-.069.34l.21 13.06a.484.484 0 0 0 .162.347.562.562 0 0 0 .378.143Zm178.529-28.915-5.6-.03a.401.401 0 0 0-.403.398l-.172 32.92a.4.4 0 0 0 .398.402l5.6.029a.4.4 0 0 0 .402-.398l.172-32.919a.399.399 0 0 0-.397-.402Zm58.971 9.665 30.38.06c.165 0 .322.057.439.158a.508.508 0 0 1 .181.382l.03 3.67a.427.427 0 0 1-.19.339.782.782 0 0 1-.46.141l-30.16.06a.858.858 0 0 0-.597.246.848.848 0 0 0-.182.273.84.84 0 0 0-.061.321l.12 12.96c.003.186.08.364.215.495a.724.724 0 0 0 .505.205l30.41.06c.138 0 .27.051.368.143a.479.479 0 0 1 .152.347l.04 3.53a.665.665 0 0 1-.199.474.686.686 0 0 1-.481.196h-36.91a.657.657 0 0 1-.466-.194.657.657 0 0 1-.194-.466v-32.26a.57.57 0 0 1 .56-.57l5.25-.07c.139 0 .272.052.372.145a.5.5 0 0 1 .158.355l.23 8.51a.51.51 0 0 0 .147.347.489.489 0 0 0 .343.143Zm-359.19 17.47a.613.613 0 0 0 .509.266.625.625 0 0 0 .511-.276l11.12-16.75a1.464 1.464 0 0 1 1.22-.65h5.42c.5 0 .61.206.33.62l-15.14 22.78a1.17 1.17 0 0 1-.356.352.813.813 0 0 1-.424.128h-5.37a.81.81 0 0 1-.423-.128 1.184 1.184 0 0 1-.357-.352l-15.3-22.96c-.2-.294-.123-.44.23-.44h5.59a1.563 1.563 0 0 1 1.31.71l11.13 16.7Zm62.3-17.41h-37.18a.49.49 0 0 0-.49.49v3.72c0 .27.22.49.49.49h37.18a.49.49 0 0 0 .49-.49v-3.72a.49.49 0 0 0-.49-.49Zm38.26 4.81-23.91-.06a.774.774 0 0 0-.555.237.835.835 0 0 0-.235.573l-.15 17.75a.592.592 0 0 1-.151.399.513.513 0 0 1-.369.171l-4.78.06a.725.725 0 0 1-.55-.243.838.838 0 0 1-.17-.273.917.917 0 0 1-.06-.324l-.07-22.58c0-.138.054-.27.15-.368a.505.505 0 0 1 .36-.152h37.14c.159 0 .312.065.425.181a.634.634 0 0 1 .175.439l-.1 22.51a.834.834 0 0 1-.194.534.656.656 0 0 1-.214.162.584.584 0 0 1-.252.054l-5.11-.08a.461.461 0 0 1-.344-.183.701.701 0 0 1-.146-.427l-.36-17.88a.5.5 0 0 0-.158-.355.546.546 0 0 0-.372-.145Zm97.08 18.93a.26.26 0 0 1-.26.26h-37.74a.264.264 0 0 1-.184-.076.264.264 0 0 1-.076-.184v-23.48a.26.26 0 0 1 .26-.26h37.74a.26.26 0 0 1 .26.26v23.48Zm-6.51-18.56a.418.418 0 0 0-.42-.42h-24.42a.42.42 0 0 0-.42.42v13.42a.424.424 0 0 0 .123.297.42.42 0 0 0 .297.123h24.42a.424.424 0 0 0 .388-.259.424.424 0 0 0 .032-.161v-13.42Zm19.56.4-.06 17.75a.676.676 0 0 1-.193.474.659.659 0 0 1-.467.196h-4.93a.657.657 0 0 1-.466-.194.657.657 0 0 1-.194-.466v-22.7a.636.636 0 0 1 .39-.585.599.599 0 0 1 .24-.045l36.93.17a.53.53 0 0 1 .368.146.493.493 0 0 1 .152.354v3.38a.505.505 0 0 1-.152.36.526.526 0 0 1-.368.15l-30.39.16a.876.876 0 0 0-.608.252.841.841 0 0 0-.252.598Zm76.27-5.58h-37.22a.49.49 0 0 0-.49.49v3.76c0 .27.22.49.49.49h37.22a.49.49 0 0 0 .49-.49v-3.76a.49.49 0 0 0-.49-.49Zm20.29 4.24v-3.27a1.207 1.207 0 0 1 .054-.371c.037-.118.092-.225.162-.316a.772.772 0 0 1 .245-.21.6.6 0 0 1 .289-.073h36.94a.494.494 0 0 1 .357.15.487.487 0 0 1 .143.36l-.06 22.94a.54.54 0 0 1-.161.389.562.562 0 0 1-.389.161h-36.81a.653.653 0 0 1-.463-.196.694.694 0 0 1-.197-.474l-.16-13.11a.73.73 0 0 1 .196-.509.673.673 0 0 1 .484-.211h27.23c1.987 0 2.99-.004 3.01-.01.967-.38 1.187-1.714.66-4a.94.94 0 0 0-.337-.532.977.977 0 0 0-.603-.208h-30.15a.413.413 0 0 1-.311-.15.554.554 0 0 1-.129-.36Zm31.876 10.864a.808.808 0 0 0-.497-.75.825.825 0 0 0-.31-.063l-23.86-.083a.804.804 0 0 0-.574.235.81.81 0 0 0-.239.572l-.012 3.36a.82.82 0 0 0 .236.574.817.817 0 0 0 .572.239l23.859.083a.808.808 0 0 0 .813-.807l.012-3.36Zm63.845-15.1-5.38-.009a.44.44 0 0 0-.441.439l-.04 23.1a.44.44 0 0 0 .439.441l5.38.009a.44.44 0 0 0 .441-.439l.04-23.1a.44.44 0 0 0-.439-.441Zm24.769 17.536 11.4-16.79c.157-.231.362-.42.598-.551.235-.131.493-.199.752-.199h5.52c.42 0 .517.173.29.52l-15.32 22.88a1.282 1.282 0 0 1-.364.363.74.74 0 0 1-.406.127l-5.53-.11a.724.724 0 0 1-.399-.137 1.356 1.356 0 0 1-.361-.373l-14.94-22.53c-.333-.5-.206-.747.38-.74l5.7.04a.938.938 0 0 1 .437.118c.136.075.254.182.343.312l11.32 17.05a.368.368 0 0 0 .294.164.323.323 0 0 0 .286-.144Zm62.14 5.81a.647.647 0 0 1-.65.65h-36.94a.65.65 0 0 1-.65-.65v-22.7a.65.65 0 0 1 .65-.65h36.94a.65.65 0 0 1 .65.65v22.7Zm-6.26-18.08a.46.46 0 0 0-.46-.46h-24.56a.46.46 0 0 0-.46.46v13.32a.46.46 0 0 0 .46.46h24.56a.457.457 0 0 0 .425-.284.464.464 0 0 0 .035-.176v-13.32Zm-421.21 4.23h-37.34a.45.45 0 0 0-.45.45v3.84c0 .248.202.45.45.45h37.34a.45.45 0 0 0 .45-.45v-3.84a.45.45 0 0 0-.45-.45Zm224.7 0h-37.5a.27.27 0 0 0-.27.27v4.2c0 .149.121.27.27.27h37.5a.27.27 0 0 0 .27-.27v-4.2a.27.27 0 0 0-.27-.27Zm-224.66 9.75h-37.38a.43.43 0 0 0-.43.43v3.88c0 .237.193.43.43.43h37.38a.43.43 0 0 0 .43-.43v-3.88a.43.43 0 0 0-.43-.43Zm224.57 0h-37.34a.36.36 0 0 0-.36.36v4.02c0 .199.161.36.36.36h37.34a.36.36 0 0 0 .36-.36v-4.02a.36.36 0 0 0-.36-.36Z"/>
</svg>
